<svg xmlns="http://www.w3.org/2000/svg" viewBox="0 0 900 200" width="900" height="200">
  <defs>
    <linearGradient id="activeBody" x1="0%" y1="0%" x2="100%" y2="0%">
      <stop offset="0%" stop-color="#2A5FC4"/>
      <stop offset="100%" stop-color="#1A3A7A"/>
    </linearGradient>
    <linearGradient id="dimBody" x1="0%" y1="0%" x2="100%" y2="0%">
      <stop offset="0%" stop-color="#111E35"/>
      <stop offset="100%" stop-color="#0A1422"/>
    </linearGradient>
    <filter id="glow" x="-40%" y="-40%" width="180%" height="180%">
      <feGaussianBlur stdDeviation="2" result="blur"/>
      <feMerge><feMergeNode in="blur"/><feMergeNode in="SourceGraphic"/></feMerge>
    </filter>
    <filter id="softglow" x="-25%" y="-25%" width="150%" height="150%">
      <feGaussianBlur stdDeviation="1.5" result="blur"/>
      <feMerge><feMergeNode in="blur"/><feMergeNode in="SourceGraphic"/></feMerge>
    </filter>
  </defs>

  <!-- Dark background -->
  <rect width="900" height="200" rx="24" fill="#0D1117"/>

  <!-- Scaled-down icon on left (0.35 scale, shifted) -->
  <g transform="translate(-15, -40) scale(0.42)">
    <ellipse cx="205" cy="148" rx="110" ry="35" fill="#326CE5" opacity="0.10"/>

    <ellipse cx="205" cy="350" rx="90" ry="22" fill="#070E1C"/>
    <rect x="115" y="289" width="180" height="61" fill="url(#dimBody)" opacity="0.8"/>
    <ellipse cx="205" cy="289" rx="90" ry="22" fill="#111E38" opacity="0.8"/>

    <ellipse cx="205" cy="279" rx="90" ry="22" fill="#0A1628" opacity="0.85"/>
    <rect x="115" y="218" width="180" height="61" fill="url(#dimBody)" opacity="0.85"/>
    <ellipse cx="205" cy="218" rx="90" ry="22" fill="#13213C" opacity="0.85"/>

    <text x="302" y="308" font-family="'Courier New', monospace" font-size="15" font-weight="700" fill="#1E3E6A" opacity="0.7">z</text>
    <text x="316" y="292" font-family="'Courier New', monospace" font-size="12" font-weight="700" fill="#1E3E6A" opacity="0.5">z</text>

    <ellipse cx="205" cy="208" rx="90" ry="22" fill="#122878"/>
    <rect x="115" y="147" width="180" height="61" fill="url(#activeBody)"/>
    <ellipse cx="205" cy="147" rx="90" ry="22" fill="#326CE5"/>
    <circle cx="270" cy="147" r="6" fill="#22C55E" filter="url(#glow)"/>
    <circle cx="270" cy="147" r="3" fill="white" opacity="0.9"/>

    <circle cx="336" cy="200" r="68" fill="#060F1E" opacity="0.93"/>
    <circle cx="336" cy="200" r="68" fill="none" stroke="#00CFFF" stroke-width="11" filter="url(#softglow)"/>
    <line x1="386" y1="252" x2="430" y2="304" stroke="#00CFFF" stroke-width="15" stroke-linecap="round" filter="url(#softglow)"/>
    <circle cx="388" cy="254" r="7" fill="#00CFFF" filter="url(#softglow)"/>
    <circle cx="336" cy="200" r="5" fill="#00CFFF" opacity="0.5"/>
  </g>

  <!-- Text on right -->
  <text x="240" y="108" font-family="'Courier New', Courier, monospace" font-size="58" font-weight="700" fill="white" letter-spacing="2">PVC</text>
  <text x="240" y="148" font-family="'Courier New', Courier, monospace" font-size="24" font-weight="400" fill="#326CE5" letter-spacing="8">explorer</text>
</svg>
